<svg xmlns="http://www.w3.org/2000/svg" width="2154.431" height="268.498" viewBox="0 0 2154.431 268.498"><g fill="#fff"><path d="M134.248 0C60.104 0 0 60.105 0 134.25c0 74.143 60.104 134.248 134.248 134.248s134.248-60.105 134.248-134.248S208.392 0 134.248 0zm84.757 219.008c-11.012 11.013-23.834 19.654-38.104 25.69-14.77 6.248-30.464 9.415-46.65 9.415-16.188 0-31.885-3.167-46.652-9.414-14.27-6.035-27.093-14.682-38.104-25.692-11.014-11.014-19.656-23.834-25.694-38.105-6.244-14.767-9.412-30.464-9.412-46.65 0-16.188 3.168-31.885 9.412-46.65C29.838 73.33 38.483 60.51 49.494 49.498c11.013-11.013 23.833-19.658 38.104-25.69 14.77-6.248 30.464-9.416 46.652-9.416 16.188 0 31.885 3.168 46.65 9.415 14.272 6.033 27.095 14.68 38.105 25.69 11.014 11.015 19.657 23.834 25.693 38.106 6.246 14.768 9.414 30.465 9.414 46.65 0 16.188-3.168 31.886-9.414 46.65-6.036 14.27-14.68 27.09-25.693 38.105zM134.248 104.282c16.802 0 30.818-11.92 34.056-27.763l7-6.998-7-6.998C165.07 46.68 151.05 34.76 134.248 34.76c-19.197 0-34.76 15.562-34.76 34.762.002 19.198 15.563 34.76 34.76 34.76zM134.248 164.217c-16.802 0-30.82 11.918-34.055 27.763l-7 6.997 7 6.998c3.236 15.843 17.254 27.763 34.055 27.763 19.197 0 34.76-15.562 34.76-34.76 0-19.2-15.56-34.76-34.76-34.76zM198.976 99.49c-19.197 0-34.76 15.562-34.76 34.76 0 16.802 11.918 30.817 27.762 34.058l6.998 6.996 6.996-6.996c15.845-3.238 27.767-17.256 27.767-34.058-.002-19.198-15.568-34.76-34.764-34.76zM104.282 134.248c0-16.8-11.92-30.815-27.763-34.055l-7-6.997-6.996 6.997c-15.847 3.235-27.766 17.254-27.766 34.055 0 19.197 15.563 34.762 34.763 34.762 19.2 0 34.762-15.564 34.762-34.762z"/></g><g enable-background="new" fill="#fff"><path d="M451.692 153.775h-49.14v76.18h-19.758V44.84h68.897c33.8 0 57.2 21.06 57.2 54.34 0 33.277-23.4 54.595-57.198 54.595zm-1.82-91.258h-47.32v73.578h47.32c23.14 0 39.26-12.48 39.26-36.918 0-24.44-16.12-36.66-39.26-36.66zM546.955 170.935c0 28.08 13.26 44.2 37.7 44.2 14.818 0 23.397-4.42 33.54-14.56l12.738 11.18c-13 12.998-24.96 19.758-46.8 19.758-33.798 0-55.896-20.28-55.896-65.518 0-41.34 20.02-65.52 52.52-65.52 33.02 0 52.52 23.92 52.52 61.878v8.58l-86.322.002zm63.7-35.36c-4.94-11.698-16.38-19.237-29.9-19.237s-24.96 7.538-29.9 19.237c-2.858 7.02-3.38 10.92-3.898 21.32h67.598c-.522-10.4-1.042-14.3-3.9-21.32zM737.065 126.476c-7.02-7.02-12.22-9.36-22.1-9.36-18.72 0-30.68 14.82-30.68 34.32v78.52h-18.72v-127.92h18.72v15.602c7.02-10.66 21.06-17.16 35.88-17.16 12.22 0 21.58 2.86 30.68 11.96l-13.78 14.038zM818.833 231.513c-32.24 0-56.678-21.838-56.678-65.52 0-43.68 24.438-65.52 56.678-65.52 17.68 0 28.86 4.683 42.12 18.98l-12.74 11.96c-9.62-10.658-17.16-14.3-29.38-14.3-12.48 0-22.88 4.94-29.64 14.56-5.98 8.32-8.32 18.2-8.32 34.32s2.34 26 8.32 34.317c6.76 9.62 17.16 14.56 29.64 14.56 12.22 0 19.76-3.898 29.38-14.56l12.74 12.22c-13.26 14.304-24.44 18.983-42.12 18.983zM970.59 216.954c-8.84 8.84-21.06 14.56-36.658 14.56-15.6 0-27.818-5.72-36.66-14.56-13-13.26-15.6-31.198-15.6-50.96 0-19.76 2.6-37.697 15.6-50.958 8.84-8.84 21.062-14.56 36.66-14.56 15.6 0 27.82 5.72 36.66 14.56 13 13.26 15.6 31.2 15.6 50.96s-2.6 37.7-15.6 50.958zm-13.258-90.478c-5.98-5.98-14.3-9.36-23.4-9.36-9.098 0-17.158 3.38-23.14 9.36-9.358 9.36-10.398 25.22-10.398 39.52 0 14.3 1.04 30.16 10.4 39.52 5.978 5.98 14.04 9.36 23.14 9.36 9.1 0 17.42-3.382 23.398-9.36 9.36-9.358 10.14-25.22 10.14-39.52 0-14.3-.78-30.16-10.14-39.52zM1051.27 229.954c-22.357 0-32.498-14.56-32.498-34.06V44.835h18.72v150.277c0 12.48 4.16 18.72 17.16 18.72h10.14v16.12h-13.52zM1167.774 229.954v-12.22c-10.398 10.4-19.76 13.778-36.92 13.778-17.68 0-28.077-3.38-36.138-11.7-6.24-6.24-9.62-15.857-9.62-26 0-22.357 15.6-36.917 44.2-36.917h38.478v-12.22c0-18.72-9.358-28.08-32.76-28.08-16.38 0-24.698 3.898-32.238 14.56l-12.74-11.698c11.44-14.82 24.44-18.98 45.24-18.98 34.318 0 51.22 14.82 51.22 42.64v86.84h-18.722v-.003zm0-59.02h-35.88c-19.237 0-28.6 7.802-28.6 22.62 0 14.82 9.102 21.84 29.38 21.84 10.92 0 20.54-.78 28.6-8.58 4.422-4.16 6.5-11.44 6.5-22.1v-13.78zM1259.865 229.954c-21.84 0-32.76-15.34-32.76-34.32v-78.518h-16.12v-14.3h16.12v-40.04h18.72v40.04h27.3v14.3h-27.3v78c0 11.697 5.46 18.718 17.42 18.718h9.88v16.12h-13.26zM1311.835 170.935c0 28.08 13.26 44.2 37.7 44.2 14.817 0 23.397-4.42 33.538-14.56l12.738 11.18c-12.998 12.998-24.958 19.758-46.798 19.758-33.8 0-55.897-20.28-55.897-65.518 0-41.34 20.02-65.52 52.52-65.52 33.02 0 52.52 23.92 52.52 61.878v8.58l-86.32.002zm63.7-35.36c-4.94-11.698-16.38-19.237-29.9-19.237s-24.96 7.538-29.9 19.237c-2.857 7.02-3.38 10.92-3.897 21.32h67.6c-.524-10.4-1.044-14.3-3.904-21.32zM1553.63 231.513c-27.818 0-46.018-7.02-63.437-24.44l13.52-13.52c15.34 15.34 29.64 20.28 50.438 20.28 27.04 0 43.68-12.738 43.68-34.318 0-9.62-2.86-17.94-8.84-23.14-5.98-5.2-10.66-6.76-24.18-8.84l-21.578-3.38c-14.56-2.34-26-7.02-34.06-14.04-9.36-8.32-14.04-19.76-14.04-34.58 0-31.458 22.62-52.258 59.278-52.258 23.66 0 39.26 5.98 55.118 20.28l-12.74 12.737c-11.438-10.398-23.658-15.86-43.158-15.86-24.7 0-39 13.782-39 34.32 0 9.1 2.6 16.38 8.32 21.318 5.72 4.94 15.34 8.58 24.96 10.142l20.278 3.12c17.42 2.6 26 6.238 33.8 13 10.14 8.578 15.6 21.318 15.6 36.658.002 32.5-25.476 52.52-63.957 52.52zM1682.617 229.954c-21.84 0-32.76-15.34-32.76-34.32v-78.518h-16.12v-14.3h16.12v-40.04h18.72v40.04h27.3v14.3h-27.3v78c0 11.697 5.46 18.718 17.42 18.718h9.88v16.12h-13.26zM1806.322 229.954v-14.3c-9.1 10.4-21.84 15.858-36.14 15.858-13.78 0-25.22-4.158-33.02-11.96-9.102-8.84-13-21.06-13-35.878v-81.64h18.72v78.78c0 22.618 11.96 34.058 31.2 34.058 19.237 0 31.978-11.698 31.978-34.06v-78.778h18.72v127.918l-18.458.002zM1941.52 229.954v-15.34c-10.398 13.52-22.358 16.898-36.398 16.898-13 0-24.44-4.42-31.2-11.18-13-13-15.6-34.318-15.6-54.34 0-20.02 2.6-41.34 15.6-54.34 6.76-6.76 18.2-11.18 31.2-11.18 14.04 0 25.74 3.122 36.14 16.382v-72.02h18.72v185.118h-18.46v.002zm-32.24-112.838c-27.818 0-32.238 23.92-32.238 48.88s4.42 48.88 32.24 48.88c27.817 0 31.978-23.922 31.978-48.88s-4.16-48.88-31.98-48.88zM1997.656 65.638v-21.06h21.06v21.06h-21.06zm1.04 164.316V102.036h18.72v127.918h-18.72zM2138.83 216.954c-8.84 8.84-21.06 14.56-36.658 14.56s-27.82-5.72-36.66-14.56c-13-13.26-15.6-31.198-15.6-50.96 0-19.76 2.6-37.697 15.6-50.958 8.84-8.84 21.062-14.56 36.66-14.56s27.82 5.72 36.66 14.56c13 13.26 15.6 31.2 15.6 50.96s-2.6 37.7-15.6 50.958zm-13.258-90.478c-5.98-5.98-14.3-9.36-23.4-9.36s-17.158 3.38-23.14 9.36c-9.358 9.36-10.398 25.22-10.398 39.52 0 14.3 1.04 30.16 10.4 39.52 5.978 5.98 14.04 9.36 23.14 9.36 9.1 0 17.42-3.382 23.398-9.36 9.36-9.358 10.14-25.22 10.14-39.52-.002-14.3-.78-30.16-10.14-39.52z"/></g></svg>